<mxfile host="65bd71144e">
    <diagram name="Strona-1" id="3Qnl4gd5NQs8dDHJ04L7">
        <mxGraphModel dx="1143" dy="561" grid="1" gridSize="10" guides="1" tooltips="1" connect="1" arrows="1" fold="1" page="1" pageScale="1" pageWidth="827" pageHeight="1169" math="0" shadow="0">
            <root>
                <mxCell id="0"/>
                <mxCell id="1" parent="0"/>
                <mxCell id="WW4X_b01WZ4bWeZ9AGSR-2" value="" style="endArrow=classic;html=1;rounded=0;" parent="1" edge="1">
                    <mxGeometry width="50" height="50" relative="1" as="geometry">
                        <mxPoint x="360" y="120" as="sourcePoint"/>
                        <mxPoint x="240" y="200" as="targetPoint"/>
                        <Array as="points"/>
                    </mxGeometry>
                </mxCell>
                <mxCell id="WW4X_b01WZ4bWeZ9AGSR-4" value="" style="endArrow=classic;html=1;rounded=0;" parent="1" edge="1">
                    <mxGeometry width="50" height="50" relative="1" as="geometry">
                        <mxPoint x="480" y="120" as="sourcePoint"/>
                        <mxPoint x="600" y="200" as="targetPoint"/>
                    </mxGeometry>
                </mxCell>
                <mxCell id="WW4X_b01WZ4bWeZ9AGSR-5" value="User" style="shape=umlActor;verticalLabelPosition=bottom;verticalAlign=top;html=1;outlineConnect=0;" parent="1" vertex="1">
                    <mxGeometry x="405" y="20" width="30" height="60" as="geometry"/>
                </mxCell>
                <mxCell id="WW4X_b01WZ4bWeZ9AGSR-6" value="Log in" style="rounded=1;whiteSpace=wrap;html=1;" parent="1" vertex="1">
                    <mxGeometry x="160" y="210" width="120" height="60" as="geometry"/>
                </mxCell>
                <mxCell id="WW4X_b01WZ4bWeZ9AGSR-7" value="Register" style="rounded=1;whiteSpace=wrap;html=1;" parent="1" vertex="1">
                    <mxGeometry x="560" y="210" width="120" height="60" as="geometry"/>
                </mxCell>
                <mxCell id="WW4X_b01WZ4bWeZ9AGSR-9" value="" style="endArrow=classic;html=1;rounded=0;" parent="1" edge="1">
                    <mxGeometry width="50" height="50" relative="1" as="geometry">
                        <mxPoint x="240" y="280" as="sourcePoint"/>
                        <mxPoint x="400" y="360" as="targetPoint"/>
                    </mxGeometry>
                </mxCell>
                <mxCell id="WW4X_b01WZ4bWeZ9AGSR-10" value="" style="endArrow=classic;html=1;rounded=0;" parent="1" edge="1">
                    <mxGeometry width="50" height="50" relative="1" as="geometry">
                        <mxPoint x="600" y="280" as="sourcePoint"/>
                        <mxPoint x="440" y="360" as="targetPoint"/>
                        <Array as="points"/>
                    </mxGeometry>
                </mxCell>
                <mxCell id="WW4X_b01WZ4bWeZ9AGSR-11" value="Dashboard" style="rounded=1;whiteSpace=wrap;html=1;" parent="1" vertex="1">
                    <mxGeometry x="360" y="370" width="120" height="60" as="geometry"/>
                </mxCell>
                <mxCell id="WW4X_b01WZ4bWeZ9AGSR-12" value="" style="endArrow=classic;html=1;rounded=0;" parent="1" edge="1">
                    <mxGeometry width="50" height="50" relative="1" as="geometry">
                        <mxPoint x="400" y="440" as="sourcePoint"/>
                        <mxPoint x="240" y="520" as="targetPoint"/>
                        <Array as="points"/>
                    </mxGeometry>
                </mxCell>
                <mxCell id="WW4X_b01WZ4bWeZ9AGSR-13" value="" style="endArrow=classic;html=1;rounded=0;" parent="1" edge="1">
                    <mxGeometry width="50" height="50" relative="1" as="geometry">
                        <mxPoint x="440" y="440" as="sourcePoint"/>
                        <mxPoint x="600" y="520" as="targetPoint"/>
                    </mxGeometry>
                </mxCell>
                <mxCell id="WW4X_b01WZ4bWeZ9AGSR-14" value="" style="endArrow=classic;html=1;rounded=0;" parent="1" edge="1">
                    <mxGeometry width="50" height="50" relative="1" as="geometry">
                        <mxPoint x="420" y="440" as="sourcePoint"/>
                        <mxPoint x="420" y="560" as="targetPoint"/>
                    </mxGeometry>
                </mxCell>
                <mxCell id="WW4X_b01WZ4bWeZ9AGSR-15" value="Turnieje" style="rounded=1;whiteSpace=wrap;html=1;" parent="1" vertex="1">
                    <mxGeometry x="160" y="530" width="120" height="60" as="geometry"/>
                </mxCell>
                <mxCell id="WW4X_b01WZ4bWeZ9AGSR-16" value="Ustawienia" style="rounded=1;whiteSpace=wrap;html=1;" parent="1" vertex="1">
                    <mxGeometry x="360" y="570" width="120" height="60" as="geometry"/>
                </mxCell>
                <mxCell id="WW4X_b01WZ4bWeZ9AGSR-17" value="Boty" style="rounded=1;whiteSpace=wrap;html=1;" parent="1" vertex="1">
                    <mxGeometry x="560" y="530" width="120" height="60" as="geometry"/>
                </mxCell>
                <mxCell id="WW4X_b01WZ4bWeZ9AGSR-18" value="" style="endArrow=classic;html=1;rounded=0;" parent="1" edge="1">
                    <mxGeometry width="50" height="50" relative="1" as="geometry">
                        <mxPoint x="640" y="600" as="sourcePoint"/>
                        <mxPoint x="720" y="680" as="targetPoint"/>
                    </mxGeometry>
                </mxCell>
                <mxCell id="WW4X_b01WZ4bWeZ9AGSR-19" value="" style="endArrow=classic;html=1;rounded=0;" parent="1" edge="1">
                    <mxGeometry width="50" height="50" relative="1" as="geometry">
                        <mxPoint x="600" y="600" as="sourcePoint"/>
                        <mxPoint x="520" y="680" as="targetPoint"/>
                    </mxGeometry>
                </mxCell>
                <mxCell id="WW4X_b01WZ4bWeZ9AGSR-20" value="Dodaj bota" style="rounded=1;whiteSpace=wrap;html=1;" parent="1" vertex="1">
                    <mxGeometry x="680" y="690" width="120" height="60" as="geometry"/>
                </mxCell>
                <mxCell id="WW4X_b01WZ4bWeZ9AGSR-21" value="Podgląd bota" style="rounded=1;whiteSpace=wrap;html=1;" parent="1" vertex="1">
                    <mxGeometry x="440" y="690" width="120" height="60" as="geometry"/>
                </mxCell>
                <mxCell id="WW4X_b01WZ4bWeZ9AGSR-22" value="" style="endArrow=classic;html=1;rounded=0;" parent="1" edge="1">
                    <mxGeometry width="50" height="50" relative="1" as="geometry">
                        <mxPoint x="200" y="600" as="sourcePoint"/>
                        <mxPoint x="120" y="680" as="targetPoint"/>
                    </mxGeometry>
                </mxCell>
                <mxCell id="WW4X_b01WZ4bWeZ9AGSR-23" value="" style="endArrow=classic;html=1;rounded=0;" parent="1" edge="1">
                    <mxGeometry width="50" height="50" relative="1" as="geometry">
                        <mxPoint x="240" y="600" as="sourcePoint"/>
                        <mxPoint x="320" y="680" as="targetPoint"/>
                    </mxGeometry>
                </mxCell>
                <mxCell id="WW4X_b01WZ4bWeZ9AGSR-25" value="Podgląd turnieju" style="rounded=1;whiteSpace=wrap;html=1;" parent="1" vertex="1">
                    <mxGeometry x="280" y="690" width="120" height="60" as="geometry"/>
                </mxCell>
                <mxCell id="WW4X_b01WZ4bWeZ9AGSR-26" value="Dołącz do turnieju" style="rounded=1;whiteSpace=wrap;html=1;" parent="1" vertex="1">
                    <mxGeometry x="40" y="690" width="120" height="60" as="geometry"/>
                </mxCell>
                <mxCell id="WW4X_b01WZ4bWeZ9AGSR-27" value="" style="endArrow=classic;html=1;rounded=0;" parent="1" edge="1">
                    <mxGeometry width="50" height="50" relative="1" as="geometry">
                        <mxPoint x="219.5" y="600" as="sourcePoint"/>
                        <mxPoint x="220" y="840" as="targetPoint"/>
                    </mxGeometry>
                </mxCell>
                <mxCell id="WW4X_b01WZ4bWeZ9AGSR-31" value="Użytkownik&lt;div&gt;premium&lt;/div&gt;" style="edgeLabel;html=1;align=center;verticalAlign=middle;resizable=0;points=[];fontColor=#ba55d3;" parent="WW4X_b01WZ4bWeZ9AGSR-27" connectable="0" vertex="1">
                    <mxGeometry x="0.1333" y="-3" relative="1" as="geometry">
                        <mxPoint as="offset"/>
                    </mxGeometry>
                </mxCell>
                <mxCell id="WW4X_b01WZ4bWeZ9AGSR-28" value="Utwórz turniej" style="rounded=1;whiteSpace=wrap;html=1;" parent="1" vertex="1">
                    <mxGeometry x="160" y="850" width="120" height="60" as="geometry"/>
                </mxCell>
                <mxCell id="WW4X_b01WZ4bWeZ9AGSR-30" value="Zarządzaj turniejem" style="rounded=1;whiteSpace=wrap;html=1;" parent="1" vertex="1">
                    <mxGeometry x="360" y="850" width="120" height="60" as="geometry"/>
                </mxCell>
                <mxCell id="WW4X_b01WZ4bWeZ9AGSR-32" value="" style="endArrow=classic;html=1;rounded=0;" parent="1" edge="1">
                    <mxGeometry width="50" height="50" relative="1" as="geometry">
                        <mxPoint x="319.5" y="760" as="sourcePoint"/>
                        <mxPoint x="400" y="840" as="targetPoint"/>
                    </mxGeometry>
                </mxCell>
                <mxCell id="WW4X_b01WZ4bWeZ9AGSR-33" value="Użytkownik&lt;div&gt;premium&lt;/div&gt;" style="edgeLabel;html=1;align=center;verticalAlign=middle;resizable=0;points=[];fontColor=#ba55d3;" parent="WW4X_b01WZ4bWeZ9AGSR-32" connectable="0" vertex="1">
                    <mxGeometry x="0.1333" y="-3" relative="1" as="geometry">
                        <mxPoint as="offset"/>
                    </mxGeometry>
                </mxCell>
            </root>
        </mxGraphModel>
    </diagram>
</mxfile>